<?xml version="1.0" encoding="UTF-8"?>
<svg xmlns="http://www.w3.org/2000/svg" xmlns:xlink="http://www.w3.org/1999/xlink" viewBox="0 0 32 32" width="32px" height="32px">
<g id="surface10486489">
<path style=" stroke:none;fill-rule:nonzero;fill:rgb(90.588236%,29.803923%,23.529412%);fill-opacity:1;" d="M 22.15625 1 C 22.113281 1 22.082031 1.011719 22.0625 1.035156 L 18.34375 5.445312 L 17.585938 8.050781 C 17.074219 8.035156 16.542969 8.027344 15.996094 8.027344 C 12.136719 8.027344 9 8.4375 9 8.941406 C 9 10.152344 22.988281 10.152344 22.988281 8.941406 C 22.988281 8.566406 21.316406 8.25 18.898438 8.101562 L 19.5 5.957031 L 22.972656 1.777344 L 22.980469 1.769531 C 23.058594 1.691406 22.90625 1.449219 22.65625 1.234375 C 22.472656 1.074219 22.277344 0.996094 22.152344 1 Z M 17.304688 9.074219 L 17.289062 9.117188 C 17.28125 9.121094 17.285156 9.128906 17.285156 9.132812 C 17.285156 9.210938 17.585938 9.269531 17.957031 9.269531 C 18.324219 9.269531 18.628906 9.210938 18.628906 9.132812 L 18.640625 9.085938 C 18.738281 9.121094 18.792969 9.164062 18.792969 9.207031 C 18.792969 9.328125 18.417969 9.429688 17.949219 9.421875 C 17.496094 9.421875 17.121094 9.332031 17.121094 9.210938 C 17.121094 9.160156 17.195312 9.109375 17.304688 9.074219 Z M 22.914062 9.417969 C 21.0625 10.40625 10.949219 10.414062 9.09375 9.433594 L 9.914062 16.667969 C 10.269531 15.511719 11.175781 13.957031 12.335938 13.484375 C 12.71875 13.328125 13.105469 13.328125 13.46875 13.539062 C 13.78125 13.710938 14.046875 14.074219 14.078125 14.21875 C 14.152344 14.59375 13.957031 14.742188 13.808594 14.742188 C 13.625 14.742188 13.484375 14.476562 13.394531 14.320312 C 13.148438 13.898438 12.769531 13.882812 12.371094 14.15625 C 11.953125 14.445312 11.589844 14.929688 11.335938 15.351562 C 11.027344 15.859375 10.765625 16.417969 10.609375 16.976562 C 10.519531 17.300781 10.433594 17.816406 10.574219 18.125 C 10.636719 18.25 10.726562 18.332031 10.871094 18.332031 C 11.175781 18.332031 11.613281 17.949219 11.828125 17.746094 C 12.097656 17.488281 12.449219 17.085938 12.582031 16.824219 L 12.898438 15.933594 C 13.054688 15.542969 13.496094 15.609375 13.496094 15.933594 C 13.496094 16.523438 13.273438 16.71875 12.894531 17.933594 C 12.542969 19.058594 12.433594 19.421875 12.433594 19.421875 C 12.390625 19.582031 12.226562 19.851562 12.050781 19.851562 C 11.976562 19.851562 11.925781 19.828125 11.894531 19.78125 C 11.832031 19.703125 11.839844 19.480469 11.847656 19.421875 C 11.859375 19.238281 12.226562 18.140625 12.289062 17.96875 C 12.167969 18.097656 12.039062 18.222656 11.902344 18.347656 C 11.574219 18.644531 11.046875 19.027344 10.601562 19.027344 C 10.394531 19.027344 10.261719 18.976562 10.136719 18.890625 L 10.59375 23.476562 C 10.714844 23.765625 12.964844 24.464844 15.933594 24.464844 C 18.902344 24.464844 21.152344 23.761719 21.269531 23.476562 L 21.929688 18.027344 C 21.582031 18.328125 21.183594 18.695312 20.742188 18.878906 C 20.414062 19.015625 19.691406 19.097656 19.691406 18.550781 C 19.691406 18.25 20.242188 17.699219 20.5625 17.3125 C 20.644531 17.214844 20.84375 16.972656 20.84375 16.84375 C 20.84375 16.679688 20.480469 16.71875 20.136719 16.988281 C 19.941406 17.144531 19.761719 17.351562 19.609375 17.546875 C 19.347656 17.894531 19.210938 18.195312 19.097656 18.441406 C 18.722656 19.257812 18.847656 18.9375 18.546875 19.707031 C 18.242188 20.476562 18.292969 20.386719 18.230469 20.515625 C 18.175781 20.625 18.097656 20.71875 17.988281 20.773438 C 17.875 20.832031 17.714844 20.828125 17.621094 20.757812 C 17.566406 20.722656 17.539062 20.648438 17.539062 20.542969 C 17.539062 20.492188 17.546875 20.441406 17.558594 20.386719 C 17.648438 20.035156 18.03125 19.347656 18.46875 18.410156 C 18.5625 18.199219 18.527344 18.261719 18.515625 18.277344 C 18.140625 18.625 17.855469 18.792969 17.644531 18.886719 C 17.292969 19.035156 16.855469 19.035156 16.765625 18.648438 C 16.757812 18.625 16.761719 18.601562 16.753906 18.578125 C 16.039062 19.109375 15.285156 19.253906 15.546875 18.113281 C 15.265625 18.585938 14.78125 18.972656 14.1875 18.972656 C 13.941406 18.972656 13.757812 18.890625 13.667969 18.679688 C 13.527344 18.359375 13.746094 17.816406 13.945312 17.304688 C 14.046875 17.046875 14.1875 16.734375 14.378906 16.371094 C 14.472656 16.175781 14.628906 16.058594 14.835938 16.113281 C 14.871094 16.125 14.902344 16.136719 14.933594 16.152344 C 15.089844 16.257812 15.03125 16.410156 14.953125 16.566406 C 14.722656 17 14.523438 17.316406 14.390625 17.765625 C 14.335938 17.957031 14.265625 18.285156 14.480469 18.285156 C 14.625 18.285156 14.761719 18.238281 14.898438 18.148438 C 15.175781 17.949219 15.398438 17.65625 15.570312 17.371094 C 15.6875 17.164062 15.835938 16.890625 15.910156 16.660156 C 15.9375 16.5625 15.976562 16.46875 16.019531 16.382812 C 16.085938 16.238281 16.175781 16.089844 16.332031 16.089844 C 16.410156 16.089844 16.476562 16.117188 16.527344 16.175781 C 16.628906 16.304688 16.605469 16.433594 16.550781 16.574219 C 16.429688 16.894531 16.265625 17.183594 16.132812 17.535156 C 16.054688 17.738281 15.96875 17.996094 15.96875 18.210938 C 15.96875 18.40625 16.191406 18.359375 16.382812 18.277344 C 16.527344 18.214844 16.671875 18.117188 16.792969 18.019531 C 16.867188 17.738281 16.847656 17.800781 18.390625 14.089844 C 18.46875 13.898438 18.613281 13.816406 18.761719 13.816406 C 18.832031 13.816406 18.890625 13.839844 18.953125 13.882812 C 19.054688 13.957031 19.058594 14.117188 19.015625 14.238281 C 18.972656 14.347656 18.976562 14.3125 18.742188 14.84375 C 18.425781 15.539062 18.222656 16.042969 17.945312 16.683594 C 17.828125 16.945312 17.476562 17.769531 17.417969 17.96875 C 17.382812 18.09375 17.339844 18.300781 17.480469 18.300781 C 17.804688 18.300781 18.648438 17.546875 18.878906 17.320312 C 18.890625 17.304688 18.90625 17.296875 18.933594 17.285156 C 18.96875 17.175781 19.003906 17.074219 19.035156 16.96875 C 19.117188 16.75 19.199219 16.496094 19.355469 16.316406 C 19.402344 16.257812 19.457031 16.226562 19.519531 16.226562 C 19.6875 16.226562 19.773438 16.292969 19.773438 16.457031 C 19.773438 16.519531 19.730469 16.75 19.707031 16.8125 C 19.789062 16.726562 19.878906 16.640625 19.976562 16.554688 C 20.882812 15.753906 21.53125 16.164062 21.53125 16.566406 C 21.53125 16.992188 20.992188 17.585938 20.699219 17.914062 C 20.601562 18.023438 20.402344 18.226562 20.394531 18.285156 C 20.394531 18.359375 20.449219 18.390625 20.527344 18.390625 C 20.648438 18.390625 20.914062 18.1875 21.011719 18.117188 C 21.316406 17.890625 21.726562 17.546875 22.015625 17.304688 Z M 10.929688 24.03125 L 11.832031 25.496094 L 12.183594 30.074219 C 12.183594 30.585938 13.894531 31 16 31 C 18.109375 31 19.820312 30.585938 19.820312 30.074219 L 20.097656 25.449219 L 20.949219 24.03125 C 18.554688 24.996094 13.421875 25.027344 10.929688 24.03125 Z M 10.929688 24.03125 "/>
</g>
</svg>
